# xmcd
#
# Track frame offsets: 
#        150
#        21298
#        35580
#        54347
#        70571
#        95563
#        122816
#        147466
#        168660
#        184859
#        203250
#        218229
#        240890
#        246325
#        273674
#        301030
#
# Disc length: 4201 seconds
#
# Revision: 8
# Processed by: cddbd v1.5.2PL0 Copyright (c) Steve Scherf et al.
# Submitted via: ExactAudioCopy v1.0b3
#
DISCID=e0106710
DTITLE=Various Artist - Гитаристы России
DYEAR=2001
DGENRE=Guitar
TTITLE0=Дмитрий Четвергов - Propeller-Chet
TTITLE1=Александр Василенко - Мышка
TTITLE2=ДиДюЛя - Айседора
TTITLE3=Дмитрий Ранцев - Летний свет
TTITLE4=Алексей Кузнецов, Николай Громин - Елена и Маргарита
TTITLE5=Игорь Бойко - Осень в Манхеттене
TTITLE6=Дмитрий Малолетов - Шесть струн и душа
TTITLE7=Иван Смирнов - Встреча
TTITLE8=Александр Василенко - Наблюдение
TTITLE9=Мэй Лиан - Я хочу попасть в рай
TTITLE10=Антон Цыганков - Тпнцующие краски
TTITLE11=Дмитрий Четвергов - Ovetronus
TTITLE12=Дмитрий Малолетов - Старинная английская песня
TTITLE13=Иван Смирнов - Хмель
TTITLE14=Игорь Бойко - Баллада для двоих
TTITLE15=Леван Ломидзе - Бессонная ночь
EXTD=YEAR: 2001
EXTT0=
EXTT1=
EXTT2=
EXTT3=
EXTT4=
EXTT5=
EXTT6=
EXTT7=
EXTT8=
EXTT9=
EXTT10=
EXTT11=
EXTT12=
EXTT13=
EXTT14=
EXTT15=
PLAYORDER=
